# xmcd
#
# Track frame offsets:
#	150
#	6570
#	22147
#	38507
#	57100
#	63962
#	81177
#	96060
#	110420
#	132747
#
# Disc length: 2109 seconds
#
# Revision: 0
# Processed by: cddbd v1.5PL3 Copyright (c) Steve Scherf et al.
# Submitted via: dBpowerAMP V4.0
#
DISCID=82083b0a
DTITLE=Love Is Red - The Hardest Fight
DYEAR=1900
DGENRE=
TTITLE0=My Life
TTITLE1=Close My Eyes
TTITLE2=Said And Done
TTITLE3=The Hardest Fight
TTITLE4=Everything You Love
TTITLE5=Take A Bow
TTITLE6=Sleepwalk
TTITLE7=Say Goodbye
TTITLE8=Six Months
TTITLE9=Denying Horizons
EXTD=
EXTT0=
EXTT1=
EXTT2=
EXTT3=
EXTT4=
EXTT5=
EXTT6=
EXTT7=
EXTT8=
EXTT9=
PLAYORDER=
